# xmcd CD database file
#
# Track frame offsets:
#	150
#	16337
#	34284
#	53555
#	90237
#	109600
#	127075
#	156414
#	177108
#	189669
#	210523
#	233088
#	253113
#
# Disc length: 3656 seconds
#
# Revision: 0
# Processed by: cddbd v1.5.2PL0 Copyright (c) Steve Scherf et al.
# Submitted via: CDex 1.51
#
DISCID=a60e460d
DTITLE=THE HOOCHIE COOCHIE MEN feat. JON LORD - Danger White Men Dancing
DYEAR=2007
DGENRE=Blues
TTITLE0=The Blues Just Got Sadder
TTITLE1=Gotta Find Me Some Fire
TTITLE2=Twisted System
TTITLE3=Over And Over
TTITLE4=Let It Go
TTITLE5=Heart Of Stone
TTITLE6=If This Ain't The Blues
TTITLE7=Danger White Men Dancing
TTITLE8=Dead Presidents
TTITLE9=Hoochie Coochie Man
TTITLE10=Bottle O' Wine
TTITLE11=Everybody Wants To Go To Heave
TTITLE12=Tell Your Story Walkin'
EXTD=YEAR: 2007
EXTT0=
EXTT1=
EXTT2=
EXTT3=
EXTT4=
EXTT5=
EXTT6=
EXTT7=
EXTT8=
EXTT9=
EXTT10=
EXTT11=
EXTT12=
PLAYORDER=
